<svg xmlns="http://www.w3.org/2000/svg" xmlns:xlink="http://www.w3.org/1999/xlink" viewBox="-5.0 -10.0 110.0 135.0" version="1.1" x="0px" y="0px"><title>Menu</title><desc>Created with Sketch.</desc><g stroke="none" stroke-width="1" fill="none" fill-rule="evenodd"><path d="M94.7754168,45.5409764 C92.5579009,22.5089571 73.1715094,4.94647845 50.0242808,5.00012256 C48.5305301,5.00012256 47.016317,5.00012256 45.5225662,5.22512225 C21.6694942,7.61816228 3.87691387,28.2773005 5.05528881,52.2120721 C6.23366375,76.1468437 25.9695625,94.9597635 49.9424315,95 C51.4361822,95 52.9503954,95 54.4441461,94.7750003 C79.1811267,92.3104667 97.237034,70.2688856 94.7754168,45.5409764 L94.7754168,45.5409764 Z M53.8507383,88.6590995 C52.4865823,88.795463 51.1906342,88.8568265 49.9628938,88.8431902 C29.2213218,88.8572804 12.1211719,72.5928491 11.1047387,51.884111 C10.0883055,31.175373 25.5135667,13.3157389 46.1568987,11.300114 C47.5210547,11.1637505 48.8170028,11.102387 50.0447432,11.1160233 C70.7863152,11.1019332 87.8864651,27.3663644 88.9028983,48.0751025 C89.9193315,68.7838405 74.4940703,86.6434746 53.8507383,88.6590995 L53.8507383,88.6590995 Z M69.8636364,47 C71.5958022,47 73,48.5670034 73,50.5 C73,52.4329966 71.5958022,54 69.8636364,54 L30.1363636,54 C28.4041978,54 27,52.4329966 27,50.5 C27,48.5670034 28.4041978,47 30.1363636,47 L69.8636364,47 Z M69.8636364,35 C71.5958022,35 73,36.5670034 73,38.5 C73,40.4329966 71.5958022,42 69.8636364,42 L30.1363636,42 C28.4041978,42 27,40.4329966 27,38.5 C27,36.5670034 28.4041978,35 30.1363636,35 L69.8636364,35 Z M69.8636364,59 C71.5958022,59 73,60.5670034 73,62.5 C73,64.4329966 71.5958022,66 69.8636364,66 L30.1363636,66 C28.4041978,66 27,64.4329966 27,62.5 C27,60.5670034 28.4041978,59 30.1363636,59 L69.8636364,59 Z" fill="#000000"/></g><text x="0.0" y="117.5" font-size="5.0" font-weight="bold" font-family="Arbeit Regular, Helvetica, Arial-Unicode, Arial, Sans-serif" fill="#000000">Created by El Maestro Design</text><text x="0.0" y="122.5" font-size="5.0" font-weight="bold" font-family="Arbeit Regular, Helvetica, Arial-Unicode, Arial, Sans-serif" fill="#000000">from Noun Project</text></svg>